PathFileType	4	(X/Y/Z)	/Users/niels/Desktop/University/Third Semester/Perception and Action/Exam/Gymnastics Motion Tracking/Code for Gym Tracking/Analyzed Data/Webcam_Backflip/id10_1_baseline_Sports2D/id10_1_baseline_Sports2D_px_person00.trc
DataRate	CameraRate	NumFrames	NumMarkers	Units	OrigDataRate	OrigDataStartFrame	OrigNumFrames
29.705882352941178	29.705882352941178	9	22	m	29.705882352941178	63	102
Frame#	Time	Hip			RHip			RKnee			RAnkle			RBigToe			RSmallToe			RHeel			LHip			LKnee			LAnkle			LBigToe			LSmallToe			LHeel			Neck			Head			Nose			RShoulder			RElbow			RWrist			LShoulder			LElbow			LWrist		
		X1	Y1	Z1	X2	Y2	Z2	X3	Y3	Z3	X4	Y4	Z4	X5	Y5	Z5	X6	Y6	Z6	X7	Y7	Z7	X8	Y8	Z8	X9	Y9	Z9	X10	Y10	Z10	X11	Y11	Z11	X12	Y12	Z12	X13	Y13	Z13	X14	Y14	Z14	X15	Y15	Z15	X16	Y16	Z16	X17	Y17	Z17	X18	Y18	Z18	X19	Y19	Z19	X20	Y20	Z20	X21	Y21	Z21	X22	Y22	Z22
63	2.120792079207921	1.0962627105226173	-0.593898915482256	0.0	1.08228888360535	-0.5900213098510211	0.0	1.0502677375554261	-0.8290334925813315	0.0	0.8895685433451357	-1.0047900165437598	0.0	0.9563140097299574	-1.0668735260430235	0.0	0.9290198228982286	-1.0698164666830026	0.0	0.854269051317598	-1.0200714231879424	0.0	1.1297616235523487	-0.5915744236482948	0.0	1.2049328218747692	-0.803643046940972	0.0	1.2486468882980233	-1.0103120371048617	0.0	1.3441802687519604	-1.038498211266635	0.0	1.3313810363964032	-1.0294388332259856	0.0	1.2334663226209457	-1.039594863826036	0.0	1.111004437035069	-0.2871871147796483	0.0	1.1272115129457763	-0.1446993633779863	0.0	1.158594879006263	-0.22172241846927834	0.0	1.1070559264069448	-0.3229455868627963	0.0	1.274337886338815	-0.29578854427955864	0.0	1.324742973390277	-0.16851508166655818	0.0	1.0833998657929476	-0.313854389234487	0.0	1.2140896288850787	-0.3284588481502809	0.0	1.1810818985319151	-0.4959116383886904	0.0
64	2.1544554455445546	1.1147465051707923	-0.5948087873312204	0.0	1.1004277532805502	-0.5908216559058549	0.0	1.0689817964612018	-0.8291093454529691	0.0	0.8983076797628495	-1.0007354947629725	0.0	0.9591366339290882	-1.067579708715772	0.0	0.931840919130485	-1.0679474556628197	0.0	0.8624010359547272	-1.0137342891581842	0.0	1.1479758240949376	-0.5925301550504634	0.0	1.220480003499985	-0.8053900824963338	0.0	1.2522651868724815	-1.0121833142595245	0.0	1.3470332259531648	-1.046368858128504	0.0	1.33445017186542	-1.0362735683948938	0.0	1.2355939990681934	-1.040963806394103	0.0	1.1312460723753681	-0.2879652598307164	0.0	1.1485943275500874	-0.14582929155549534	0.0	1.1799879975819132	-0.2228576183303277	0.0	1.1267077567816284	-0.3253272365268603	0.0	1.2977162455622193	-0.30098797041795283	0.0	1.3464922083494326	-0.17291434984052284	0.0	1.1065532043420112	-0.3138954643078882	0.0	1.253423935824972	-0.30765798726440535	0.0	1.229860984687857	-0.43045436053753733	0.0
65	2.1881188118811883	1.1326186425574902	-0.5952408814660982	0.0	1.118471845504127	-0.5909539779148211	0.0	1.0859221766610154	-0.8285374354254186	0.0	0.9073471215374416	-0.9978154994964763	0.0	0.9627664365662513	-1.0682464535022682	0.0	0.9352096699541634	-1.0664376254792316	0.0	0.8712309773383646	-1.0089897393129406	0.0	1.1653563417424124	-0.5928812405202123	0.0	1.2344576256341269	-0.8063547806172766	0.0	1.2549271212382462	-1.0131810410119202	0.0	1.3489298935394605	-1.0509727641860878	0.0	1.3368549664065	-1.040754598257927	0.0	1.2369980371362574	-1.0413674720856971	0.0	1.1510976578689516	-0.28791488543042204	0.0	1.170517795668428	-0.14640332972352055	0.0	1.201857082167256	-0.2230212480899691	0.0	1.1477898543420317	-0.3259139714070721	0.0	1.320959875056221	-0.3049298691212221	0.0	1.3697159034055117	-0.1775362751005283	0.0	1.128489809915742	-0.3134462199986046	0.0	1.284391409003208	-0.2943833198640876	0.0	1.2814454848497596	-0.35668826268355436	0.0
66	2.221782178217822	1.149073042476981	-0.594830234772395	0.0	1.1354705036283776	-0.5902654557493894	0.0	1.1002256437441849	-0.8269545253392455	0.0	0.9161663746520803	-0.9956513556191472	0.0	0.9669705077357327	-1.0686086117278375	0.0	0.9388971674504879	-1.0652536330307465	0.0	0.8801342637063693	-1.0056403872452264	0.0	1.181074465634229	-0.5924992191717348	0.0	1.2462089850646771	-0.8061831116162165	0.0	1.2568335302204614	-1.0134322537149276	0.0	1.3506330892855523	-1.0526013846449125	0.0	1.339141905407888	-1.043024056137826	0.0	1.2377889447536459	-1.0409885285820417	0.0	1.170328864696234	-0.2872314634966119	0.0	1.1929544877613598	-0.14650949578381142	0.0	1.223770149694877	-0.2224405576192161	0.0	1.1701385418444417	-0.32509257537584035	0.0	1.3439023811229567	-0.3077819669788213	0.0	1.3939405984040352	-0.18245653613540358	0.0	1.148337832960589	-0.3124665683076883	0.0	1.3073123209698192	-0.28776436845477654	0.0	1.3288968397368395	-0.29001714205417084	0.0
67	2.2554455445544557	1.1635858349409316	-0.593236562339079	0.0	1.150266115660957	-0.5886086961444956	0.0	1.1116051441753128	-0.824175905677342	0.0	0.924503719160899	-0.9935984659187141	0.0	0.9712719754635203	-1.068555832915185	0.0	0.9424138580299889	-1.0643513038032428	0.0	0.8889008376954974	-1.0029147731677837	0.0	1.194847557513227	-0.5912571723233497	0.0	1.2553488742754886	-0.8050131059564628	0.0	1.258101503886074	-1.0131717542338685	0.0	1.3526107075562634	-1.052118126225962	0.0	1.3415360879668805	-1.043611028052381	0.0	1.2379629883165397	-1.04019216774586	0.0	1.1889277865013168	-0.28619991888555263	0.0	1.2156920246174243	-0.1462279105385564	0.0	1.2451824967813314	-0.22159929008449444	0.0	1.192533596816347	-0.32355341295018486	0.0	1.3662900069527633	-0.31007690352172784	0.0	1.4184280831004124	-0.18753957776694785	0.0	1.1665517313119378	-0.31099174530169743	0.0	1.3246747221770951	-0.28556461124698546	0.0	1.3679930307431836	-0.24157917311063476	0.0
68	2.2891089108910894	1.1760485935764704	-0.5903337614318265	0.0	1.1619625605959896	-0.5859503166887305	0.0	1.1202282732250644	-0.820409331625998	0.0	0.9323191437663652	-0.9911284773141986	0.0	0.9750970972904187	-1.0681401116639315	0.0	0.9452582815284611	-1.0636362098854508	0.0	0.8975203471435085	-1.0000372347964868	0.0	1.207055946475927	-0.5891675109826437	0.0	1.2618771274858607	-0.8033623626618935	0.0	1.2588183499583476	-1.0125876147904105	0.0	1.3547470652863298	-1.0505777974952744	0.0	1.3438900051547147	-1.043199819535795	0.0	1.2376124999723126	-1.0393183842438565	0.0	1.2069779197948838	-0.2849994185379806	0.0	1.238226913803988	-0.1456213178826558	0.0	1.2655842815701455	-0.22094364726091506	0.0	1.2133599847134642	-0.3219273480099874	0.0	1.387564820556681	-0.3124665626784398	0.0	1.4424161627983125	-0.1927889046638128	0.0	1.1843915528207256	-0.30914482064424614	0.0	1.3395014762651363	-0.285669390662741	0.0	1.398741613256239	-0.21381691596682503	0.0
69	2.322772277227723	1.1865361679419517	-0.5862802424854914	0.0	1.17045586365466	-0.5824157839786129	0.0	1.1264980266341136	-0.8162075179486289	0.0	0.9396795663395181	-0.9880838095372084	0.0	0.9781297467626363	-1.0676243587947944	0.0	0.9473752872545321	-1.0630606682504788	0.0	0.9059338871997376	-0.9966224540310015	0.0	1.2179962374091813	-0.5864070490205585	0.0	1.2661619632363157	-0.8017428777210377	0.0	1.2590854516097783	-1.0117254656241301	0.0	1.3564482357939338	-1.0488911278612185	0.0	1.3457759840894195	-1.0424253868096867	0.0	1.237019185190441	-1.0384943557462218	0.0	1.2244903999589585	-0.2836614937415763	0.0	1.2598927667049264	-0.14477755872135242	0.0	1.2846031024750735	-0.2206427374543437	0.0	1.231865622026793	-0.3205051719354409	0.0	1.40696601037654	-0.3152812904643081	0.0	1.465210508986772	-0.19842185760978853	0.0	1.2026909713827514	-0.3071186061462328	0.0	1.353846771609715	-0.28676704465459346	0.0	1.4233779313613268	-0.2027204894572402	0.0
70	2.3564356435643568	1.1951624648300672	-0.581511352137867	0.0	1.1764039771259356	-0.5782964398864134	0.0	1.1309522671726024	-0.8122167407630346	0.0	0.9466700850426816	-0.9846133042326211	0.0	0.9804966408405131	-1.0673176790096741	0.0	0.94921660681307	-1.0626230751473684	0.0	0.9140243635079727	-0.9926800877621152	0.0	1.2274934025627873	-0.5833072146446675	0.0	1.268831228791867	-0.8004896855974362	0.0	1.2590389437187803	-1.0105715498261603	0.0	1.357041800567339	-1.0476475873268627	0.0	1.346683506569321	-1.0417177527820816	0.0	1.236520090638536	-1.0376611873604689	0.0	1.241271033794319	-0.2822075690338891	0.0	1.2800463554202293	-0.14384748191896565	0.0	1.3020105227733152	-0.22064034473907906	0.0	1.2482978378189735	-0.3192176981230385	0.0	1.423770176418864	-0.31836655508357536	0.0	1.4862297291165723	-0.20457713535798877	0.0	1.2212175826703462	-0.30511098027078765	0.0	1.3683766770104786	-0.28840700090389026	0.0	1.4439838375907197	-0.20232344511097378	0.0
71	2.3900990099009904	1.2022008861744478	-0.5765647903133885	0.0	1.1807231823850755	-0.5739943175579425	0.0	1.134188581193882	-0.8089155838140778	0.0	0.953292364191314	-0.98101722310822	0.0	0.9824787087020257	-1.0672726018501715	0.0	0.9512485161950747	-1.0622436027880482	0.0	0.9216376457895757	-0.9885442076957669	0.0	1.235390595625129	-0.5802473245816637	0.0	1.2706232268353315	-0.79974830436827	0.0	1.2588763136746792	-1.0092015737337343	0.0	1.3561776794683058	-1.0470666426364448	0.0	1.3462794564159688	-1.0411875433671494	0.0	1.2363088170847838	-1.0367388363342316	0.0	1.2569154150181077	-0.28073440151013224	0.0	1.2982262731811256	-0.14301987815627124	0.0	1.317698107021277	-0.22083516644442114	0.0	1.262859165295907	-0.31785640931300896	0.0	1.437617636098498	-0.3212753736872293	0.0	1.5051339481819752	-0.21110339531665565	0.0	1.239060285420258	-0.303246865528849	0.0	1.3828791915373482	-0.29075970183375865	0.0	1.4618808937273293	-0.20744602237907436	0.0
